<svg xmlns="http://www.w3.org/2000/svg">
    <symbol width="53" height="53" viewBox="0 0 53 53" fill="none" id="logo-icon">
        <path
            d="M12.402 31.8169C12.8536 30.8947 13.3241 29.9819 13.8087 29.0691C10.4918 29.7043 7.24545 30.0854 3.77798 30.4901C3.6933 30.4995 3.60861 30.5042 3.52392 30.5042C2.43711 30.5042 1.49614 29.6902 1.3644 28.5797C1.22326 27.3846 2.07954 26.3071 3.27457 26.1659C7.94647 25.6201 12.1996 25.1214 16.7539 23.9403C18.5559 21.0231 20.5366 18.1717 22.7055 15.3768C26.7941 10.1163 30.8496 6.09331 34.877 3.29838C35.545 2.83256 36.1943 2.43262 36.8248 2.07972C33.649 0.74343 30.1627 0 26.4976 0C11.8656 0 0 11.8667 0 26.5C0 33.6049 2.79938 40.0464 7.34896 44.8034C8.11114 41.4862 9.80018 37.1574 12.402 31.8169Z"
            fill="white" />
        <path
            d="M38.3962 6.70501C36.7259 8.1307 34.7781 10.1493 32.5527 12.7513C30.3274 15.358 28.1208 18.1858 25.9377 21.2301C29.6263 19.6868 32.8256 17.7671 35.5262 15.4662C38.2268 13.1653 40.2169 10.7468 41.4919 8.21069C42.3764 6.39917 42.4423 5.31226 41.7037 4.95466C41.1673 4.69587 40.0664 5.27932 38.3962 6.70501Z"
            fill="white" />
        <path
            d="M46.3616 8.96338C46.2157 9.32568 46.0558 9.69269 45.8723 10.0738C42.8235 16.3271 36.1756 21.4417 25.9426 25.4224C25.8579 25.4694 25.7732 25.5165 25.6791 25.5541C24.4794 26.0435 23.322 26.4716 22.1928 26.8575C20.5038 29.5818 19.13 32.0285 18.0761 34.1977C16.5847 37.2561 15.1591 40.4415 13.7947 43.7635C12.6326 46.5913 12.1433 48.2946 12.3127 48.8828C12.4585 48.9769 12.6044 49.0757 12.7549 49.1651C13.6065 49.2168 14.7074 47.8711 16.053 45.1139C17.1822 42.7989 18.1184 40.4839 18.8618 38.1642C19.6052 35.8492 20.2968 33.3554 20.9366 30.6923C21.0966 30.2923 21.4589 29.8641 22.0329 29.4077C22.6021 28.9513 23.2044 28.6031 23.8395 28.3584C24.47 28.1185 24.9499 28.0761 25.2792 28.2314C25.872 28.5231 26.5683 28.8995 27.3729 29.3607C27.6269 29.5206 27.928 29.6853 28.2856 29.8594C29.4712 30.4382 30.8403 30.9793 32.3976 31.478C32.647 31.5627 32.9151 31.6568 33.1974 31.7603C33.4797 31.8592 33.7526 31.9768 34.0208 32.1085C34.8488 32.5132 34.9618 33.3413 34.3548 34.5882C33.2116 36.9314 30.798 37.2043 27.1235 35.4116C26.4131 35.0634 25.4533 34.4329 24.2488 33.5107C23.736 35.5387 23.0585 37.736 22.2211 40.0981C21.3789 42.4601 20.6073 44.3704 19.8969 45.8244C18.8148 48.0405 17.6621 49.7626 16.4341 51.0142C19.5393 52.2894 22.9409 52.9999 26.5025 52.9999C41.1392 52.9999 53.0001 41.1332 53.0001 26.4999C53.0001 19.7761 50.4877 13.6404 46.3616 8.96338Z"
            fill="white" />
    </symbol>
    <symbol width="15" height="15" viewBox="0 0 15 15" fill="none" id="social__icon-facebook">
        <path
            d="M2.73891 0C1.22167 0 0 1.22167 0 2.7389V12.2611C0 13.7783 1.22167 15 2.73891 15H7.89985V9.13593H6.34923V7.02468H7.89985V5.22093C7.89985 3.80381 8.81604 2.50265 10.9266 2.50265C11.7811 2.50265 12.413 2.58469 12.413 2.58469L12.3633 4.55626C12.3633 4.55626 11.7188 4.55017 11.0156 4.55017C10.2545 4.55017 10.1325 4.90084 10.1325 5.48298V7.0247H12.4237L12.3239 9.13594H10.1325V15H12.2611C13.7783 15 15 13.7783 15 12.2611V2.73892C15 1.22169 13.7783 1.5e-05 12.2611 1.5e-05H2.73889L2.73891 0Z"
            fill="#9ECDF6" />
    </symbol>
    <symbol width="15" height="15" viewBox="0 0 15 15" fill="none" id="social__icon-vk">
        <path
            d="M9.80219 0H5.19781C0.996063 0 0 0.996063 0 5.19781V9.80219C0 14.0039 0.996063 15 5.19781 15H9.80219C14.0039 15 15 14.0039 15 9.80219V5.19781C15 0.996063 13.9941 0 9.80219 0ZM12.1093 10.7003H11.0204C10.608 10.7003 10.4809 10.3731 9.73891 9.62126C9.0944 8.99644 8.80894 8.91347 8.65004 8.91347C8.42552 8.91347 8.36177 8.97675 8.36177 9.28471V10.2686C8.36177 10.5325 8.2788 10.6909 7.58039 10.6909C6.42542 10.6909 5.1439 9.9925 4.24534 8.69129C2.89022 6.78448 2.51945 5.35624 2.51945 5.06094C2.51945 4.90203 2.58273 4.75345 2.88788 4.75345H3.97909C4.25518 4.75345 4.36018 4.88047 4.46752 5.17578C5.00703 6.73338 5.9056 8.09787 6.27637 8.09787C6.41324 8.09787 6.47652 8.03459 6.47652 7.68539V6.07668C6.4348 5.33468 6.04434 5.27093 6.04434 5.0075C6.04434 4.88047 6.14934 4.75345 6.31762 4.75345H8.03366C8.26568 4.75345 8.35099 4.88047 8.35099 5.15375V7.32399C8.35099 7.55836 8.45599 7.64132 8.51927 7.64132C8.65614 7.64132 8.77332 7.55836 9.02691 7.3043C9.81063 6.42542 10.3722 5.07031 10.3722 5.07031C10.4453 4.91141 10.5723 4.76282 10.8484 4.76282H11.9396C12.2668 4.76282 12.3399 4.9311 12.2668 5.16546C12.1299 5.80013 10.7945 7.68492 10.7945 7.68492C10.6797 7.87522 10.6356 7.95819 10.7945 8.17053C10.9117 8.32943 11.2928 8.65895 11.5464 8.95425C12.0127 9.48392 12.3713 9.92828 12.467 10.2358C12.5743 10.5409 12.4159 10.6998 12.1079 10.6998L12.1093 10.7003Z"
            fill="white" />
    </symbol>
    <symbol width="15" height="15" viewBox="0 0 15 15" fill="none" id="social__icon-instagram">
        <path
            d="M7.49798 4.99894C6.12083 4.99894 4.99697 6.12282 4.99697 7.5C4.99697 8.87718 6.12083 10.0011 7.49798 10.0011C8.87514 10.0011 9.999 8.87718 9.999 7.5C9.999 6.12282 8.87514 4.99894 7.49798 4.99894ZM14.9992 7.5C14.9992 6.4643 15.0085 5.43798 14.9504 4.40416C14.8922 3.20335 14.6183 2.13763 13.7402 1.25953C12.8603 0.379564 11.7964 0.107505 10.5956 0.049341C9.55996 -0.00882328 8.53366 0.000558085 7.49986 0.000558085C6.46418 0.000558085 5.43788 -0.00882328 4.40408 0.049341C3.20329 0.107505 2.13759 0.38144 1.25951 1.25953C0.379557 2.1395 0.107503 3.20335 0.0493401 4.40416C-0.00882312 5.43986 0.000558074 6.46618 0.000558074 7.5C0.000558074 8.53382 -0.00882312 9.56202 0.0493401 10.5958C0.107503 11.7967 0.381433 12.8624 1.25951 13.7405C2.13946 14.6204 3.20329 14.8925 4.40408 14.9507C5.43976 15.0088 6.46605 14.9994 7.49986 14.9994C8.53554 14.9994 9.56184 15.0088 10.5956 14.9507C11.7964 14.8925 12.8621 14.6186 13.7402 13.7405C14.6202 12.8605 14.8922 11.7967 14.9504 10.5958C15.0104 9.56202 14.9992 8.5357 14.9992 7.5ZM7.49798 11.3482C5.36846 11.3482 3.64983 9.62956 3.64983 7.5C3.64983 5.37044 5.36846 3.65177 7.49798 3.65177C9.62751 3.65177 11.3461 5.37044 11.3461 7.5C11.3461 9.62956 9.62751 11.3482 7.49798 11.3482ZM11.5037 4.3929C11.0065 4.3929 10.605 3.99138 10.605 3.49417C10.605 2.99696 11.0065 2.59544 11.5037 2.59544C12.0009 2.59544 12.4025 2.99696 12.4025 3.49417C12.4026 3.61223 12.3795 3.72917 12.3343 3.83827C12.2892 3.94738 12.223 4.04651 12.1396 4.13C12.0561 4.21348 11.9569 4.27968 11.8478 4.32479C11.7387 4.3699 11.6218 4.39305 11.5037 4.3929Z"
            fill="#9ECDF6" />
    </symbol>
    <symbol width="20" height="15" viewBox="0 0 20 15" fill="none" id="social__icon-youtube">
        <path
            d="M19.5825 2.31359C19.4663 1.86788 19.2449 1.46191 18.9396 1.13499C18.6344 0.808079 18.2556 0.571296 17.8401 0.447572C16.2802 2.13969e-05 10.0095 2.1505e-05 10.0095 2.1505e-05C10.0095 2.1505e-05 3.75073 -0.0107145 2.17462 0.447572C1.75974 0.571839 1.38175 0.808871 1.07717 1.13576C0.772597 1.46264 0.551744 1.86832 0.435958 2.31359C0.139742 4.02745 -0.00614963 5.76733 0.00019855 7.51041C-0.00269177 9.24511 0.143176 10.9764 0.435958 12.6824C0.552118 13.1279 0.773037 13.5339 1.07751 13.8614C1.38197 14.1888 1.75977 14.4268 2.17462 14.5525C3.73447 15 10.0095 15 10.0095 15C10.0095 15 16.2646 15 17.8401 14.5525C18.2556 14.4274 18.6341 14.1896 18.9393 13.8621C19.2444 13.5346 19.4659 13.1284 19.5825 12.6824C19.8694 10.9774 20.0095 9.24358 19.9995 7.51041C20.0095 5.76584 19.8726 4.02932 19.5825 2.31359ZM8.00642 10.7224V4.28429L13.2261 7.51041L8.00642 10.7224Z"
            fill="#9ECDF6" />
    </symbol>
</svg>